<svg xmlns="http://www.w3.org/2000/svg" xmlns:xlink="http://www.w3.org/1999/xlink" width="299" height="176" viewBox="0 0 299 176">
    <defs>
        <linearGradient id="a" x1="17.69%" x2="72.232%" y1="0%" y2="78.411%">
            <stop offset="0%" stop-color="#FFCF61" stop-opacity=".8"/>
            <stop offset="100%" stop-color="#FFDA49" stop-opacity=".173"/>
        </linearGradient>
        <linearGradient id="b" x1="6.426%" x2="79.983%" y1="32.783%" y2="59.783%">
            <stop offset="0%" stop-color="#FFCF61" stop-opacity=".8"/>
            <stop offset="100%" stop-color="#FFDA49" stop-opacity=".173"/>
        </linearGradient>
        <linearGradient id="c" x1="6.426%" x2="79.983%" y1="26.618%" y2="63.286%">
            <stop offset="0%" stop-color="#FFCF61" stop-opacity=".8"/>
            <stop offset="100%" stop-color="#FFDA49" stop-opacity=".173"/>
        </linearGradient>
        <linearGradient id="d" x1="6.426%" x2="79.983%" y1="49.528%" y2="50.268%">
            <stop offset="0%" stop-color="#FFCF61" stop-opacity=".8"/>
            <stop offset="100%" stop-color="#FFDA49" stop-opacity=".173"/>
        </linearGradient>
        <linearGradient id="e" x1="7.215%" x2="79.44%" y1="0%" y2="78.411%">
            <stop offset="0%" stop-color="#FFCF61" stop-opacity=".8"/>
            <stop offset="100%" stop-color="#FFDA49" stop-opacity=".173"/>
        </linearGradient>
        <linearGradient id="f" x1="21.545%" x2="69.579%" y1="0%" y2="78.411%">
            <stop offset="0%" stop-color="#FFCF61" stop-opacity=".8"/>
            <stop offset="100%" stop-color="#FFDA49" stop-opacity=".173"/>
        </linearGradient>
        <linearGradient id="g" x1="91.772%" x2="22.845%" y1="46.614%" y2="51.519%">
            <stop offset="0%" stop-color="#FFC600"/>
            <stop offset="100%" stop-color="#FFAF26"/>
        </linearGradient>
        <path id="h" d="M0 31.618L131.912 0l-16.683 27.137L0 38.59z"/>
        <filter id="i" width="102.3%" height="107.8%" x="-1.1%" y="-3.9%" filterUnits="objectBoundingBox">
            <feOffset dy="3" in="SourceAlpha" result="shadowOffsetInner1"/>
            <feComposite in="shadowOffsetInner1" in2="SourceAlpha" k2="-1" k3="1" operator="arithmetic" result="shadowInnerInner1"/>
            <feColorMatrix in="shadowInnerInner1" values="0 0 0 0 1 0 0 0 0 1 0 0 0 0 1 0 0 0 0.5 0"/>
        </filter>
        <linearGradient id="j" x1="101.423%" x2="26.931%" y1="48.496%" y2="51.344%">
            <stop offset="0%" stop-color="#FFC600"/>
            <stop offset="100%" stop-color="#FFAF26"/>
        </linearGradient>
        <path id="k" d="M0 38.59l112.753-14.818-14.574 23.192L0 44.25z"/>
        <filter id="l" width="102.7%" height="112.9%" x="-1.3%" y="-6.5%" filterUnits="objectBoundingBox">
            <feOffset dy="3" in="SourceAlpha" result="shadowOffsetInner1"/>
            <feComposite in="shadowOffsetInner1" in2="SourceAlpha" k2="-1" k3="1" operator="arithmetic" result="shadowInnerInner1"/>
            <feColorMatrix in="shadowInnerInner1" values="0 0 0 0 1 0 0 0 0 1 0 0 0 0 1 0 0 0 0.5 0"/>
        </filter>
        <linearGradient id="m" x1="87.102%" x2="36.177%" y1="50%" y2="50%">
            <stop offset="0%" stop-color="#FFC600"/>
            <stop offset="100%" stop-color="#FFAF26"/>
        </linearGradient>
        <path id="n" d="M0 44.25h95.03L72.192 60.791 0 49.872z"/>
        <filter id="o" width="103.2%" height="118.1%" x="-1.6%" y="-9.1%" filterUnits="objectBoundingBox">
            <feOffset dy="3" in="SourceAlpha" result="shadowOffsetInner1"/>
            <feComposite in="shadowOffsetInner1" in2="SourceAlpha" k2="-1" k3="1" operator="arithmetic" result="shadowInnerInner1"/>
            <feColorMatrix in="shadowInnerInner1" values="0 0 0 0 1 0 0 0 0 1 0 0 0 0 1 0 0 0 0.5 0"/>
        </filter>
        <linearGradient id="p" x1="80.436%" x2="50%" y1="52.607%" y2="50.438%">
            <stop offset="0%" stop-color="#FFC600"/>
            <stop offset="100%" stop-color="#FFAF26"/>
        </linearGradient>
        <path id="q" d="M0 49.872l70.701 8.782-19.553 10.412L0 54.967z"/>
        <filter id="r" width="104.2%" height="115.6%" x="-2.1%" y="-7.8%" filterUnits="objectBoundingBox">
            <feOffset dy="3" in="SourceAlpha" result="shadowOffsetInner1"/>
            <feComposite in="shadowOffsetInner1" in2="SourceAlpha" k2="-1" k3="1" operator="arithmetic" result="shadowInnerInner1"/>
            <feColorMatrix in="shadowInnerInner1" values="0 0 0 0 1 0 0 0 0 1 0 0 0 0 1 0 0 0 0.5 0"/>
        </filter>
        <path id="s" d="M0 31.618L131.912 0l-16.683 27.137L0 38.59z"/>
        <filter id="t" width="102.3%" height="107.8%" x="-1.1%" y="-3.9%" filterUnits="objectBoundingBox">
            <feOffset dy="3" in="SourceAlpha" result="shadowOffsetInner1"/>
            <feComposite in="shadowOffsetInner1" in2="SourceAlpha" k2="-1" k3="1" operator="arithmetic" result="shadowInnerInner1"/>
            <feColorMatrix in="shadowInnerInner1" values="0 0 0 0 1 0 0 0 0 1 0 0 0 0 1 0 0 0 0.5 0"/>
        </filter>
        <path id="u" d="M0 38.59l112.753-14.818-14.574 23.192L0 44.25z"/>
        <filter id="v" width="102.7%" height="112.9%" x="-1.3%" y="-6.5%" filterUnits="objectBoundingBox">
            <feOffset dy="3" in="SourceAlpha" result="shadowOffsetInner1"/>
            <feComposite in="shadowOffsetInner1" in2="SourceAlpha" k2="-1" k3="1" operator="arithmetic" result="shadowInnerInner1"/>
            <feColorMatrix in="shadowInnerInner1" values="0 0 0 0 1 0 0 0 0 1 0 0 0 0 1 0 0 0 0.5 0"/>
        </filter>
        <path id="w" d="M0 44.25h95.03L72.192 60.791 0 49.872z"/>
        <filter id="x" width="103.2%" height="118.1%" x="-1.6%" y="-9.1%" filterUnits="objectBoundingBox">
            <feOffset dy="3" in="SourceAlpha" result="shadowOffsetInner1"/>
            <feComposite in="shadowOffsetInner1" in2="SourceAlpha" k2="-1" k3="1" operator="arithmetic" result="shadowInnerInner1"/>
            <feColorMatrix in="shadowInnerInner1" values="0 0 0 0 1 0 0 0 0 1 0 0 0 0 1 0 0 0 0.5 0"/>
        </filter>
        <path id="y" d="M0 49.872l70.701 8.782-19.553 10.412L0 54.967z"/>
        <filter id="z" width="104.2%" height="115.6%" x="-2.1%" y="-7.8%" filterUnits="objectBoundingBox">
            <feOffset dy="3" in="SourceAlpha" result="shadowOffsetInner1"/>
            <feComposite in="shadowOffsetInner1" in2="SourceAlpha" k2="-1" k3="1" operator="arithmetic" result="shadowInnerInner1"/>
            <feColorMatrix in="shadowInnerInner1" values="0 0 0 0 1 0 0 0 0 1 0 0 0 0 1 0 0 0 0.5 0"/>
        </filter>
        <linearGradient id="A" x1="26.605%" x2="83.804%" y1="11.62%" y2="89.009%">
            <stop offset="0%" stop-color="#FFE44E"/>
            <stop offset="100%" stop-color="#FFAF26"/>
        </linearGradient>
        <linearGradient id="B" x1="26.605%" x2="83.804%" y1="11.57%" y2="89.061%">
            <stop offset="0%" stop-color="#FFE44E"/>
            <stop offset="100%" stop-color="#FFAF26"/>
        </linearGradient>
        <linearGradient id="C" x1="26.605%" x2="83.804%" y1="11.569%" y2="89.062%">
            <stop offset="0%" stop-color="#FFE44E"/>
            <stop offset="100%" stop-color="#FFAF26"/>
        </linearGradient>
        <linearGradient id="D" x1="26.605%" x2="83.804%" y1="11.606%" y2="89.023%">
            <stop offset="0%" stop-color="#FFE44E"/>
            <stop offset="100%" stop-color="#FFAF26"/>
        </linearGradient>
        <linearGradient id="E" x1="26.605%" x2="83.804%" y1="11.683%" y2="88.945%">
            <stop offset="0%" stop-color="#FFE44E"/>
            <stop offset="100%" stop-color="#FFAF26"/>
        </linearGradient>
        <linearGradient id="G" x1="26.83%" x2="83.48%" y1="7.656%" y2="93.038%">
            <stop offset="0%" stop-color="#FFD800"/>
            <stop offset="100%" stop-color="#FFAF26"/>
        </linearGradient>
        <linearGradient id="F" x1="24.479%" x2="79.006%" y1="5.528%" y2="100%">
            <stop offset="0%" stop-color="#FFEEAB"/>
            <stop offset="100%" stop-color="#FAAD1E"/>
        </linearGradient>
        <filter id="H" width="135.3%" height="290%" x="-17.7%" y="-95%" filterUnits="objectBoundingBox">
            <feGaussianBlur in="SourceGraphic" stdDeviation="2.2"/>
        </filter>
    </defs>
    <g fill="none" fill-rule="evenodd">
        <path fill="url(#a)" d="M23.879 17.39l79.879 89.875 3.02-2.104-76.874-94.168z" transform="translate(45 14)"/>
        <path fill="url(#b)" d="M0 48.976l103.667 56.185 1.696-1.224L1.173 43.334z" transform="translate(45 14)"/>
        <path fill="url(#c)" d="M101.206 42.577l97.401 59.462 1.698-1.223-93.244-66.545z" transform="rotate(107 168.076 91.804)"/>
        <path fill="url(#d)" d="M67.56 57.237l102.566-4.709 1.697-1.223L66.208 46.98z" transform="rotate(107 136.336 75.757)"/>
        <path fill="url(#e)" d="M19.073 79.903l72.58 68.771 1.698-1.223-72.604-73.736z" transform="rotate(-58 91.34 77.603)"/>
        <path fill="url(#f)" d="M121.297 80.53l60.395 73.67 1.697-1.225-59.127-75.614z" transform="rotate(144 172.569 130.091)"/>
        <g>
            <g transform="matrix(-1 0 0 1 131.912 63.865)">
                <use fill="url(#g)" xlink:href="#h"/>
                <use fill="#000" filter="url(#i)" xlink:href="#h"/>
            </g>
            <g transform="matrix(-1 0 0 1 131.912 63.865)">
                <use fill="url(#j)" xlink:href="#k"/>
                <use fill="#000" filter="url(#l)" xlink:href="#k"/>
            </g>
            <g transform="matrix(-1 0 0 1 131.912 63.865)">
                <use fill="url(#m)" xlink:href="#n"/>
                <use fill="#000" filter="url(#o)" xlink:href="#n"/>
            </g>
            <g transform="matrix(-1 0 0 1 131.912 63.865)">
                <use fill="url(#p)" xlink:href="#q"/>
                <use fill="#000" filter="url(#r)" xlink:href="#q"/>
            </g>
            <g transform="translate(167.088 63.865)">
                <use fill="url(#g)" xlink:href="#s"/>
                <use fill="#000" filter="url(#t)" xlink:href="#s"/>
            </g>
            <g transform="translate(167.088 63.865)">
                <use fill="url(#j)" xlink:href="#u"/>
                <use fill="#000" filter="url(#v)" xlink:href="#u"/>
            </g>
            <g transform="translate(167.088 63.865)">
                <use fill="url(#m)" xlink:href="#w"/>
                <use fill="#000" filter="url(#x)" xlink:href="#w"/>
            </g>
            <g transform="translate(167.088 63.865)">
                <use fill="url(#p)" xlink:href="#y"/>
                <use fill="#000" filter="url(#z)" xlink:href="#y"/>
            </g>
            <path fill="url(#A)" d="M52.677 141.1l-4.85 2.554.93-5.404-3.92-3.823 5.421-.793 2.428-4.917 2.42 4.914 5.42.784-3.925 3.83.922 5.401z" transform="rotate(-31 52.682 136.185)"/>
            <path fill="url(#B)" d="M236.993 51.15l-6.461 3.4 1.232-7.205-5.229-5.106 7.224-1.05 3.23-6.555 3.232 6.558 7.224 1.053-5.226 5.102 1.236 7.207z" transform="rotate(9 236.99 44.594)"/>
            <path fill="url(#C)" d="M177.826 22.27l-8.4 4.423 1.604-9.369-6.796-6.635 9.391-1.367 4.2-8.524 4.2 8.525 9.391 1.367-6.795 6.635 1.605 9.37z" transform="rotate(2 177.825 13.746)"/>
            <path fill="url(#D)" d="M70.367 30.337l-6.466 3.406 1.24-7.205-5.226-5.099 7.227-1.056 3.237-6.557 3.227 6.553 7.226 1.046-5.233 5.106 1.23 7.203z" transform="rotate(-27 70.373 23.785)"/>
            <path fill="url(#E)" d="M45.146 63.485l-3.882 2.043.745-4.321-3.136-3.057 4.338-.634 1.944-3.933 1.936 3.93 4.338.626-3.142 3.063.738 4.32z" transform="rotate(-46 45.15 59.556)"/>
            <path fill="url(#E)" d="M241.915 146.07l-3.882 2.042.744-4.32-3.136-3.058 4.339-.634 1.943-3.932 1.937 3.929 4.337.626-3.141 3.063.737 4.32z" transform="rotate(-46 241.92 142.14)"/>
            <g transform="translate(94.537 33.034)">
                <ellipse cx="54.414" cy="86.267" fill="url(#G)" stroke="url(#F)" stroke-width="2.42" rx="54.414" ry="54.676"/>
                <g transform="translate(31.439)">
                    <path fill="#5C2203" d="M4.397 27.528h37.375v6.948H4.397z" filter="url(#H)" opacity=".3"/>
                    <ellipse cx="22.975" cy="2.43" fill="#FFE34D" rx="2.418" ry="2.43"/>
                    <ellipse cx="2.418" cy="12.15" fill="#FFE34D" rx="2.418" ry="2.43"/>
                    <ellipse cx="43.531" cy="12.15" fill="#FFE34D" rx="2.418" ry="2.43"/>
                    <path fill="#FFE34D" d="M2.418 17.01l.02 12.15h15.7z"/>
                    <path fill="#FFBA2E" d="M2.638 29.73h40.673v4.404H2.638zM43.53 17.01v12.15H27.812z"/>
                    <path fill="#FFBA2E" d="M35.067 29.16H22.975V7.29z"/>
                    <path fill="#FFE34D" d="M10.883 29.16h12.092V7.29z"/>
                </g>
            </g>
        </g>
    </g>
</svg>
