<svg xmlns="http://www.w3.org/2000/svg" width="23" height="23" viewBox="0 0 23 23">
    <g fill="none" fill-rule="evenodd" transform="rotate(-17 23.382 4.809)">
        <path fill="#D32C27" d="M11.223 2.472h-7.12l4.746 5.385 4.462 4.503 2.279-.707-.475-6.533z"/>
        <ellipse cx="14.769" cy="16.48" fill="#FFF" stroke="#000" stroke-width=".6" rx="1.641" ry="1.648"/>
        <path fill="#D32C27" stroke="#000" stroke-width=".6" d="M4.103 2.522C5.699.578 7.264-.242 8.799.062c2.303.455 3.408 1.458 4.329 2.004.92.547 3.039 1.914 3.868 3.919.829 2.004-.737 7.745-1.566 9.203-.829 1.458-1.381-.82-1.658-2.37-.184-1.032-.399-3.766-.644-8.2"/>
        <path stroke="#000" stroke-width=".6" d="M13.656 10.844c.966-1.24 1.513-2.338 1.641-3.296"/>
        <path fill="#FFF" stroke="#000" stroke-width=".6" d="M.33 4.734c.658-.723 1.974-2.349 3.291-2.258 1.317.09 7.996 5.15 8.748 6.414.752 1.265 1.881 3.343 1.505 4.518-.376 1.174-2.341 2.115-2.906 2.115-.564 0-5.09-5.549-6.688-7.084C2.68 6.903-.33 5.457.33 4.734z"/>
    </g>
</svg>
