<?xml version="1.0" standalone="no"?>
<!DOCTYPE svg PUBLIC "-//W3C//DTD SVG 1.1//EN" "http://www.w3.org/Graphics/SVG/1.1/DTD/svg11.dtd">
<svg t="1504678784877" class="icon" style="" viewBox="0 0 1024 1024" version="1.1" xmlns="http://www.w3.org/2000/svg" p-id="3040" xmlns:xlink="http://www.w3.org/1999/xlink" width="200" height="200" >
  <defs>
    <style type="text/css"></style>
  </defs>
  <path d="M630.272 120.32c0-65.536-53.248-118.784-118.784-118.784S392.704 54.784 392.704 120.32 446.464 239.104 512 239.104s118.272-53.248 118.272-118.784z m0 378.368c0-65.536-53.248-118.784-118.784-118.784s-118.784 53.248-118.784 118.784 53.248 118.784 118.784 118.784c66.048-0.512 118.784-53.248 118.784-118.784z m0 401.92c0-65.536-53.248-118.784-118.784-118.784s-118.784 53.248-118.784 118.784S446.464 1018.88 512 1018.88s118.272-53.248 118.272-118.272z" fill="#a7a9ad" p-id="3041"></path>
</svg>
