<svg id="_" data-name="ͼ" xmlns="http://www.w3.org/2000/svg" viewBox="0 0 97.51 33.81"><defs><style>.cls-1{fill:#0079c1;}.cls-1,.cls-2{fill-rule:evenodd;}.cls-2{fill:#f18d00;}</style></defs><title>logo.a7995ad</title><path class="cls-1" d="M29.1,31.47l1.44-6.78c.45-2.15-1.21-3.2-4.35-3.2a23.2,23.2,0,0,0-5.42.8l-1.95,9.18h3.52L24,23.83a5.66,5.66,0,0,1,1.7-.3c1.09,0,1.47.63,1.14,2.17l-1.22,5.77ZM42.41,13.3a4.56,4.56,0,0,1-1.79.38c-1.28,0-1.68-1-1.24-3.14.39-1.85,1.22-2.87,2.51-2.87A4.78,4.78,0,0,1,43.55,8L42.41,13.3Zm3,2.34L47.37,6.5a13.86,13.86,0,0,0-4.89-.81c-3.77,0-6,1.73-6.72,4.85-.73,3.45.39,5.12,3.11,5.12A7.47,7.47,0,0,0,42,15l-.13.59C41.58,17.16,40.36,18,38.28,18a6.16,6.16,0,0,1-3.13-.85l-.42,2a11.71,11.71,0,0,0,4.45.73c4.23,0,5.75-1.81,6.26-4.21ZM39.07,29.11a4.67,4.67,0,0,1-1.8.38c-1.27,0-1.68-1-1.24-3.14.39-1.85,1.22-2.88,2.52-2.88a4.44,4.44,0,0,1,1.65.29l-1.13,5.35Zm3,2.34L44,22.31a13.82,13.82,0,0,0-4.89-.82c-3.77,0-6.06,1.73-6.72,4.86-.73,3.44.38,5.12,3.1,5.12a7.43,7.43,0,0,0,3.17-.67l-.13.59C38.23,33,37,33.77,34.94,33.77a6.09,6.09,0,0,1-3.13-.86l-.43,2a11.79,11.79,0,0,0,4.45.72c4.23,0,5.75-1.81,6.26-4.2ZM32.45,15.66l1.43-6.78c.46-2.15-1.2-3.19-4.34-3.19a22.86,22.86,0,0,0-5.43.8l-1.94,9.17h3.52L27.31,8A5.26,5.26,0,0,1,29,7.72c1.09,0,1.47.63,1.14,2.17l-1.22,5.77ZM18.32,10.27c.1-3.25-5.08-2.44-6.3,1.18-.83,2.48,1.49,4.29,4.29,2.42,1.13-.76,1.43-.76,4.34-.87a8.7,8.7,0,0,1-5.17,3.92c-4.85,1.44-6.83-1.66-5.66-5.26,2.52-7.74,14.38-8.25,11.58.19-2.24.12-4.49.21-6.74.35l.39-1.78,3.27-.15Zm-4.7-5.15.51-2.4H1L.49,5.12H5.25Q3.69,12.49,2.12,19.87l2.4,6.82-1,4.78H7.15l1-4.78,6.34-8.17H10.73L7.15,23.64,5.88,19.31l3-14.19Zm2.57,26.35H12.67l2.07-9.75h3.52Z" transform="translate(-0.49 -1.85)"/><path class="cls-2" d="M18,17.47c1,0,2.1.72,4.17-.34C21,18.78,20,20.19,17.58,20.74,14.5,21.46,14.33,17.65,18,17.47Z" transform="translate(-0.49 -1.85)"/><path class="cls-1" d="M45.32,31.34h3.9l1.44-6.83h1.71l-1.45,6.83h3.9L59.21,10.6h-9.5L45.32,31.34ZM59.17,14.77h4.54l.23-1.09H59.4L59.75,12h.69V10.52h3.14V12h.71l.31-1.48h3.63L67.92,12h.66l.66-1.48h3.13L71.72,12h.71l-.35,1.68H67.56l-.23,1.09h4.52l-.36,1.7H68.08l2.73,3.18H66.3l-1.49-1.6-2.16,1.6H58.13l4.1-3.18H58.81l.36-1.7Zm2.14,8L61,24.29h8.68l-1.48,7H55.72l.35-1.65h9L65.87,26h-9l.67-3.18ZM58,20.41H70.5l-.67,3.19h-3.6l.31-1.48H57.61L58,20.41ZM56.57,27h8.22l-.36,1.68H56.22L56.57,27ZM52,18.32h1.7l-1,4.49H51l1-4.49Zm1.27-6H55L54,16.64h-1.7Z" transform="translate(-0.49 -1.85)"/><path class="cls-1" d="M72.48,22.44l-.35,1.67h8.14l-9.43,7.36h5.87L83.27,26l4.42,5.48h5.82l-6.36-7.36h8.16l.36-1.67H94.51l1.23-5.8H87.23l.15-.72h-4.1l-.15.72H74.62l-1.23,5.8ZM96.07,10.52H91.8l-.19.91H82.9a9.66,9.66,0,0,1-1.73,1.71H91.25l-.43,2h4.27l.43-2h2.12L98,11.43H95.88l.19-.91ZM77,11.43H74.81l-.36,1.71h2.34A4.44,4.44,0,0,0,77,11.43Zm14.31,6.89-.87,4.12H86l.87-4.12Zm-12.9,0h4.39l-.87,4.12h-4.4Z" transform="translate(-0.49 -1.85)"/><path class="cls-2" d="M48,6.31l9.18,2.13-1.51-2.2c6.4-3.57,28-2.16,20,10.41C78.94,15,82.43,6.83,73.47,3.53,66.22.85,54,1.32,48,6.31Zm30.39,8.32c5-7.51.9-11.36-5.59-12.69C85.12.74,86.12,10.94,78.38,14.63Z" transform="translate(-0.49 -1.85)"/></svg>