<svg id="_" data-name="ͼ" xmlns="http://www.w3.org/2000/svg" viewBox="0 0 85.43 29.62"><defs><style>.cls-1{fill:#0079c1;}.cls-1,.cls-2{fill-rule:evenodd;}.cls-2{fill:#f18d00;}</style></defs><title>logo-bold</title><path class="cls-1" d="M26.06,26.3l1.26-5.94c.39-1.89-1.06-2.8-3.81-2.8a20.09,20.09,0,0,0-4.76.7l-1.7,8h3.09l1.41-6.69A4.84,4.84,0,0,1,23,19.34c.95,0,1.29.55,1,1.9L23,26.3ZM37.72,10.38a3.94,3.94,0,0,1-1.57.34C35,10.72,34.67,9.8,35.06,8c.35-1.61,1.07-2.51,2.2-2.51a3.89,3.89,0,0,1,1.45.25l-1,4.68Zm2.65,2,1.7-8a12,12,0,0,0-4.29-.72c-3.3,0-5.31,1.52-5.89,4.25-.63,3,.34,4.49,2.72,4.49a6.56,6.56,0,0,0,2.78-.58l-.11.51c-.29,1.39-1.36,2.09-3.18,2.09a5.37,5.37,0,0,1-2.74-.75L31,15.48a10.28,10.28,0,0,0,3.9.64c3.7,0,5-1.59,5.48-3.69Zm-5.58,11.8a4,4,0,0,1-1.57.33c-1.12,0-1.48-.92-1.09-2.75.34-1.62,1.07-2.52,2.2-2.52a4.12,4.12,0,0,1,1.45.25l-1,4.69Zm2.65,2.05,1.69-8a12.29,12.29,0,0,0-4.28-.71c-3.3,0-5.31,1.52-5.89,4.25-.64,3,.34,4.49,2.72,4.49a6.52,6.52,0,0,0,2.78-.59l-.11.52c-.3,1.38-1.36,2.08-3.18,2.08a5.34,5.34,0,0,1-2.74-.75l-.38,1.77A10.38,10.38,0,0,0,32,30c3.71,0,5-1.59,5.49-3.69ZM29,12.45l1.26-5.94c.4-1.88-1.06-2.8-3.81-2.8a20.43,20.43,0,0,0-4.75.7l-1.71,8h3.09l1.42-6.69A4.77,4.77,0,0,1,26,5.5c.95,0,1.28.55,1,1.9l-1.08,5ZM16.61,7.73c.09-2.85-4.45-2.14-5.52,1-.73,2.17,1.31,3.76,3.76,2.12,1-.67,1.25-.67,3.8-.77a7.6,7.6,0,0,1-4.53,3.44c-4.25,1.27-6-1.45-4.95-4.61,2.2-6.77,12.59-7.23,10.14.17-2,.1-3.94.18-5.9.31l.33-1.56,2.87-.13ZM12.5,3.21l.44-2.1H1.43L1,3.21H5.16Q3.8,9.68,2.42,16.14l2.1,6L3.64,26.3H6.82l.89-4.19L13.26,15H10L6.83,19.44,5.71,15.65Q7,9.43,8.34,3.21ZM14.75,26.3H11.66l1.81-8.54h3.09Z" transform="translate(-0.99 -0.35)"/><path class="cls-2" d="M16.3,14c.88,0,1.84.64,3.65-.29-1,1.44-1.91,2.68-4,3.16C13.26,17.53,13.11,14.19,16.3,14Z" transform="translate(-0.99 -0.35)"/><path class="cls-1" d="M40.27,26.19h3.41l1.27-6h1.49l-1.27,6h3.42L52.44,8H44.12L40.27,26.19ZM52.4,11.66h4l.21-.95h-4l.31-1.47h.61V8h2.74V9.24h.63L57.16,8h3.18l-.28,1.29h.59L61.22,8H64l-.58,1.29H64l-.31,1.47h-4l-.2.95h4l-.32,1.5h-3l2.39,2.78h-4l-1.3-1.4-1.89,1.4h-4l3.6-2.78h-3l.32-1.5Zm1.88,7.05L54,20h7.61l-1.3,6.11H49.38l.31-1.44H57.6l.67-3.18H50.36L51,18.71Zm-2.93-2.1h11l-.59,2.79H58.58l.28-1.29H51l.32-1.5Zm-1.22,5.77h7.19L57,23.85H49.82l.31-1.47Zm-4-7.6h1.49l-.83,3.93h-1.5l.84-3.93ZM47.21,9.5h1.5l-.81,3.81H46.41Z" transform="translate(-0.99 -0.35)"/><path class="cls-1" d="M64.06,18.39l-.31,1.47h7.13L62.63,26.3h5.14l5.75-4.8,3.87,4.8h5.1l-5.58-6.44h7.16l.31-1.47h-1l1.08-5.08H77l.14-.63H73.53l-.13.63H65.94l-1.08,5.08ZM84.73,8H81l-.17.8H73.19a8.88,8.88,0,0,1-1.51,1.49h8.83L80.13,12h3.74l.38-1.77H86.1l.32-1.49H84.56l.17-.8ZM68,8.75H66.11l-.32,1.49h2A3.72,3.72,0,0,0,68,8.75Zm12.54,6-.76,3.61H75.91l.76-3.61Zm-11.3,0h3.84l-.76,3.61H68.47Z" transform="translate(-0.99 -0.35)"/><path class="cls-2" d="M42.61,4.26l8,1.86L49.33,4.2c5.61-3.14,24.51-1.89,17.48,9.12,2.91-1.45,6-8.6-1.88-11.5C58.58-.53,47.9-.12,42.61,4.26Zm26.62,7.29C73.58,5,70,1.59,64.34.43,75.14-.62,76,8.31,69.23,11.55Z" transform="translate(-0.99 -0.35)"/></svg>