<svg id="_" data-name="ͼ" xmlns="http://www.w3.org/2000/svg" viewBox="0 0 697.51 241.82"><defs><style>.cls-1{fill:#0079c1;}.cls-1,.cls-2{fill-rule:evenodd;}.cls-2{fill:#f18d00;}</style></defs><title>safari-pinned-tab</title><path class="cls-1" d="M207.17,448l10.26-48.47c3.26-15.39-8.63-22.88-31.1-22.88-16.88,0-34.61,4.63-38.79,5.72L133.64,448h25.19l11.56-54.6a39.1,39.1,0,0,1,12.17-2.18c7.76,0,10.49,4.5,8.15,15.53L182,448Zm95.21-129.94a32.44,32.44,0,0,1-12.83,2.73c-9.12,0-12-7.49-8.86-22.47,2.8-13.21,8.71-20.56,18-20.56a32.4,32.4,0,0,1,11.82,2l-8.1,38.26ZM324,334.8l13.84-65.36c-3-1.36-16.73-5.85-35-5.85-27,0-43.34,12.39-48.07,34.72-5.22,24.65,2.73,36.63,22.2,36.63,10.35,0,20.13-3.13,22.66-4.77l-.9,4.22c-2.39,11.3-11.09,17-25.93,17-8.72,0-18.78-3.26-22.4-6.12l-3,14.43c3.46,1.63,15,5.17,31.85,5.17,30.23,0,41.14-12.93,44.77-30.09Zm-45.58,96.31a32.67,32.67,0,0,1-12.84,2.72c-9.12,0-12-7.49-8.85-22.47,2.79-13.2,8.71-20.56,18-20.56a32.2,32.2,0,0,1,11.82,2.05l-8.1,38.26Zm21.64,16.75,13.84-65.36c-3-1.36-16.73-5.86-35-5.86-27,0-43.34,12.39-48.07,34.72C225.66,436,233.6,448,253.07,448c10.35,0,20.14-3.13,22.66-4.76l-.89,4.22c-2.39,11.3-11.1,17-25.94,17-8.71,0-18.78-3.27-22.39-6.13l-3.06,14.43c3.47,1.64,15,5.18,31.86,5.18,30.23,0,41.14-12.94,44.77-30.09Zm-69-112.92,10.27-48.48c3.26-15.38-8.64-22.87-31.11-22.87-16.88,0-34.61,4.63-38.79,5.72l-13.9,65.63h25.19l11.57-54.6a39.1,39.1,0,0,1,12.17-2.18c7.76,0,10.48,4.49,8.15,15.52l-8.74,41.26ZM130,296.39c.76-23.28-36.33-17.46-45.05,8.45-6,17.7,10.65,30.68,30.68,17.25,8.07-5.41,10.24-5.41,31.06-6.22-7.65,13.88-21.91,23.54-37,28C75,354.26,60.86,332.1,69.26,306.29c18-55.32,102.82-59,82.83,1.41-16.05.81-32.14,1.48-48.22,2.47l2.76-12.71L130,296.39ZM96.46,259.5l3.63-17.15h-94L2.49,259.5H36.54Q25.37,312.28,14.18,365.06l17.18,48.76L24.12,448h26l7.24-34.17,45.32-58.42h-27L50.14,392,41,361.05Q51.8,310.27,62.54,259.5ZM114.83,448H89.64l14.76-69.71h25.19Z" transform="translate(-2.49 -236.13)"/><path class="cls-2" d="M127.48,347.85c7.19-.36,15,5.18,29.83-2.41-8.06,11.8-15.62,21.92-32.57,25.86C102.69,376.41,101.48,349.16,127.48,347.85Z" transform="translate(-2.49 -236.13)"/><path class="cls-1" d="M323.17,447.11h27.88l10.35-48.88h12.18l-10.36,48.88H391.1l31.43-148.4H354.6l-31.43,148.4Zm99.05-118.58h32.46l1.65-7.76H423.86l2.54-12h4.94l0-10.59H453.7l.05,10.59h5.12l2.24-10.59h25.94l-2.24,10.59h4.76l4.72-10.59H516.7L512,308.77h5.12l-2.54,12H482.27l-1.65,7.76h32.29l-2.57,12.18H486l19.53,22.76h-32.3L462.6,352l-15.49,11.47H414.82l29.35-22.76H419.64l2.58-12.18Zm15.34,57.53-2.24,10.58h62.11l-10.57,49.94H397.57l2.5-11.82h64.59l5.49-25.94H405.57l4.82-22.76Zm-23.9-17.12H503.3l-4.82,22.76H472.72L475,381.11H411.08l2.58-12.17Zm-10,47.11h58.76l-2.54,12H401.14l2.54-12Zm-32.9-62.11H383l-6.81,32.12H364l6.8-32.12Zm9.12-43.05h12.17l-6.57,31.05H373.32Z" transform="translate(-2.49 -236.13)"/><path class="cls-1" d="M517.47,383.41l-2.55,12h58.23L505.73,448h42l46.94-39.17L626.25,448h41.64l-45.5-52.58h58.4l2.54-12H675l8.78-41.47H623l1.08-5.12H594.74l-1.09,5.12H532.78L524,383.41Zm168.74-85.23H655.68l-1.38,6.53H592a70.85,70.85,0,0,1-12.35,12.18h72.08l-3.06,14.46h30.52l3.07-14.46h15.17L700,304.71H684.83l1.38-6.53Zm-136.58,6.53h-15.5l-2.58,12.18h16.76c1-3.1,1.91-8.74,1.32-12.18ZM652,353.94l-6.24,29.47H614.16l6.24-29.47Zm-92.29,0h31.41l-6.24,29.47H553.46Z" transform="translate(-2.49 -236.13)"/><path class="cls-2" d="M342.28,268,408,283.26l-10.8-15.68C442.94,242,597.27,252.12,539.9,342c23.78-11.79,48.7-70.22-15.38-93.88C472.68,229,385.46,232.33,342.28,268Zm217.39,59.54c35.45-53.71,6.44-81.26-40-90.75C607.86,228.24,615,301.17,559.67,327.58Z" transform="translate(-2.49 -236.13)"/></svg>