<svg id="_" data-name="ͼ" xmlns="http://www.w3.org/2000/svg" viewBox="0 0 44.12 15.3"><defs><style>.cls-1{fill:#0079c1;}.cls-1,.cls-2{fill-rule:evenodd;}.cls-2{fill:#f18d00;}</style></defs><title>simplify-logo.3e3c253</title><path class="cls-1" d="M12.94,24.53l.65-3.07c.2-1-.55-1.44-2-1.44a10.55,10.55,0,0,0-2.46.36l-.88,4.15h1.6l.73-3.45a2.25,2.25,0,0,1,.77-.14c.49,0,.66.28.52,1l-.56,2.61Zm6-8.22a2.1,2.1,0,0,1-.81.17c-.58,0-.76-.47-.56-1.42s.55-1.3,1.13-1.3a1.93,1.93,0,0,1,.75.13L19,16.31Zm1.37,1.06.87-4.14A6.3,6.3,0,0,0,19,12.86a2.75,2.75,0,0,0-3,2.2c-.33,1.56.17,2.32,1.4,2.32a3.44,3.44,0,0,0,1.44-.3l-.06.26c-.15.72-.7,1.08-1.64,1.08A2.8,2.8,0,0,1,15.67,18l-.19.92a5.52,5.52,0,0,0,2,.32c1.91,0,2.6-.82,2.83-1.9Zm-2.89,6.09a2,2,0,0,1-.81.17c-.57,0-.76-.47-.56-1.42s.55-1.3,1.14-1.3A2.15,2.15,0,0,1,18,21l-.52,2.42Zm1.37,1.06.88-4.13A6.17,6.17,0,0,0,17.48,20a2.74,2.74,0,0,0-3,2.19c-.33,1.56.17,2.32,1.4,2.32a3.43,3.43,0,0,0,1.43-.3l-.05.26c-.15.72-.7,1.08-1.64,1.08a2.8,2.8,0,0,1-1.42-.39L14,26.1a5.45,5.45,0,0,0,2,.32c1.91,0,2.6-.81,2.83-1.9Zm-4.36-7.14.65-3.07c.21-1-.55-1.45-2-1.45a10.19,10.19,0,0,0-2.45.37L9.8,17.38h1.59l.73-3.46a2.64,2.64,0,0,1,.77-.13c.5,0,.67.28.52,1l-.55,2.61ZM8.06,14.94c0-1.47-2.3-1.11-2.85.53-.38,1.12.67,1.94,1.94,1.1.51-.35.64-.35,2-.4A3.93,3.93,0,0,1,6.77,18c-2.19.65-3.09-.75-2.56-2.38,1.14-3.5,6.51-3.74,5.24.08l-3,.16.18-.8,1.48-.07ZM5.93,12.61l.23-1.09H.22L0,12.61H2.14L.73,19.28l1.08,3.09-.45,2.16H3l.46-2.16,2.87-3.7H4.62L3,21l-.57-2q.67-3.21,1.36-6.42ZM7.09,24.53H5.5l.94-4.41H8Z" transform="translate(0.01 -11.13)"/><path class="cls-2" d="M7.9,18.19A2.79,2.79,0,0,0,9.78,18a3.26,3.26,0,0,1-2.06,1.64C6.33,20,6.25,18.28,7.9,18.19Z" transform="translate(0.01 -11.13)"/><path class="cls-1" d="M20.27,24.47H22l.65-3.09h.77l-.65,3.09h1.76l2-9.38h-4.3l-2,9.38ZM26.54,17h2.05l.11-.49H26.64l.16-.76h.32v-.67h1.42v.67h.33l.14-.67h1.64l-.14.67h.3l.3-.67h1.42l-.3.67h.32l-.16.76h-2l-.11.49h2.05l-.17.77H30.57l1.24,1.44h-2l-.68-.72-1,.72h-2l1.86-1.44H26.38l.16-.77Zm1,3.64-.14.67H31.3l-.67,3.16H25l.16-.75h4.08l.35-1.64H25.49l.3-1.44ZM26,19.53h5.67L31.36,21H29.73l.15-.67h-4l.16-.77Zm-.63,3h3.71l-.16.76H25.21l.16-.76Zm-2.08-3.93h.77l-.43,2h-.77l.43-2Zm.57-2.72h.77l-.41,2h-.77Z" transform="translate(0.01 -11.13)"/><path class="cls-1" d="M32.57,20.44l-.17.76h3.69l-4.27,3.33h2.66l3-2.48,2,2.48h2.63L39.2,21.2h3.7l.16-.76h-.53l.56-2.62H39.24l.07-.32H37.45l-.07.32H33.53L33,20.44Zm10.67-5.39H41.31l-.09.42H37.28a4.74,4.74,0,0,1-.78.77h4.56l-.2.91H42.8l.19-.91h1l.16-.77h-1l.09-.42Zm-8.64.42h-1l-.16.77h1.06a2,2,0,0,0,.08-.77Zm6.48,3.11-.4,1.86h-2l.4-1.86Zm-5.84,0h2l-.39,1.86h-2Z" transform="translate(0.01 -11.13)"/><path class="cls-2" d="M21.48,13.15l4.16,1-.68-1c2.89-1.62,12.65-1,9,4.71,1.51-.75,3.09-4.45-1-5.94-3.28-1.21-8.8-1-11.53,1.26Zm13.76,3.76c2.24-3.4.4-5.14-2.53-5.74C38.28,10.63,38.74,15.24,35.24,16.91Z" transform="translate(0.01 -11.13)"/></svg>